<?xml version="1.0" encoding="utf-8"?>
<!-- Generator: Adobe Illustrator 18.0.0, SVG Export Plug-In . SVG Version: 6.00 Build 0)  -->
<!DOCTYPE svg PUBLIC "-//W3C//DTD SVG 1.1//EN" "http://www.w3.org/Graphics/SVG/1.1/DTD/svg11.dtd">
<svg version="1.1" id="Layer_1" xmlns="http://www.w3.org/2000/svg" xmlns:xlink="http://www.w3.org/1999/xlink" x="0px" y="0px"
	 viewBox="0 0 17 17" enable-background="new 0 0 17 17" xml:space="preserve">
<g id="Layer_x0020_1">
	<path fill="#FFFFFF" d="M8.7,0C13.4,0,17,4,17,8.7S13.4,17,8.7,17S0,13.4,0,8.7S4,0,8.7,0z M6.1,8.7c0-1.4,1.1-2.5,2.5-2.5
		c1.1,0,2.2,1.1,2.2,2.5c0,1.1-1.1,2.2-2.2,2.2C7.2,10.8,6.1,9.7,6.1,8.7L6.1,8.7z M10.8,4H6.1C5.1,4,4,5.1,4,6.1v5.1
		c0,1.1,1.1,2.2,2.2,2.2h4.7c1.4,0,2.2-1.1,2.2-2.2V6.1C13,5.1,12.3,4,10.8,4L10.8,4z M6.1,4.3h4.7c1.1,0,1.8,1.1,1.8,1.8v5.1
		c0,0.7-0.7,1.4-1.8,1.4H6.1c-1.1,0-1.8-0.7-1.8-1.4V6.1C4.3,5.4,5.1,4.3,6.1,4.3L6.1,4.3z M11.6,5.1c-0.4,0-0.7,0.4-0.7,0.7
		c0,0,0.4,0.4,0.7,0.4l0.4-0.4C11.9,5.4,11.6,5.1,11.6,5.1L11.6,5.1z M11.6,8.7c0-1.8-1.4-2.9-2.9-2.9c-1.8,0-3.2,1.1-3.2,2.9
		c0,1.4,1.4,2.9,3.2,2.9C10.1,11.6,11.6,10.1,11.6,8.7L11.6,8.7z"/>
</g>
</svg>
