<?xml version="1.0" encoding="utf-8"?>
<!-- Generator: Adobe Illustrator 18.0.0, SVG Export Plug-In . SVG Version: 6.00 Build 0)  -->
<!DOCTYPE svg PUBLIC "-//W3C//DTD SVG 1.1//EN" "http://www.w3.org/Graphics/SVG/1.1/DTD/svg11.dtd">
<svg version="1.1" id="Layer_1" xmlns="http://www.w3.org/2000/svg" xmlns:xlink="http://www.w3.org/1999/xlink" x="0px" y="0px"
	 viewBox="0 0 17 17" enable-background="new 0 0 17 17" xml:space="preserve">
<g id="Layer_x0020_1">
	<path fill="#FFFFFF" d="M8.5,0C13.4,0,17,4,17,8.5c0,4.9-3.6,8.5-8.5,8.5C4,17,0,13.4,0,8.5C0,4,4,0,8.5,0z M13.4,6.3
		c0,0-0.4,0-0.9,0c-0.9,0-1.3,0-1.3,0s-0.4,0.4-0.9,1.3C9.8,8,9.4,8.9,9.4,8.9c-0.4,0-0.4-1.3-0.4-2.2c0-0.4,0-0.4,0-0.9
		c-0.4,0-0.9,0-0.9,0s-1.8,0-1.8,0.4c0.4,0,0.9,0,0.4,2.2c0,0,0,0.9-0.9,0c0-0.4-0.9-2.2-1.3-2.2c-0.9,0-1.8,0-1.8,0
		C2.2,6.3,3.1,7.6,4,9.4c0.9,1.3,1.8,2.7,3.6,2.7c0.4,0,0.9,0,1.3,0c0,0,0-1.3,0.4-1.3s1.3,1.3,1.8,1.3c0,0,0.4,0,1.3,0
		c0.4,0,0.9,0.4,0.9,0c0.4-0.9-1.3-2.2-1.8-2.7c0-0.4,0.9-0.9,1.3-1.3C13.4,7.1,13.8,6.7,13.4,6.3z"/>
</g>
</svg>
