<?xml version="1.0" encoding="utf-8"?>
<!-- Generator: Adobe Illustrator 18.0.0, SVG Export Plug-In . SVG Version: 6.00 Build 0)  -->
<!DOCTYPE svg PUBLIC "-//W3C//DTD SVG 1.1//EN" "http://www.w3.org/Graphics/SVG/1.1/DTD/svg11.dtd">
<svg version="1.1" xmlns="http://www.w3.org/2000/svg" xmlns:xlink="http://www.w3.org/1999/xlink" x="0px" y="0px"
	 viewBox="0 0 61.9 61.9" enable-background="new 0 0 61.9 61.9" xml:space="preserve">
<g id="Layer_1">
</g>
<g id="Layer_2">
	<path fill="#FEFEFE" d="M30.9,0C13.9,0,0,13.9,0,30.9c0,17.1,13.9,31,30.9,31c17.1,0,31-13.9,31-31C61.9,13.9,48,0,30.9,0z
		 M44.3,34.9v0.2L30.8,48.5c-1.1,1-2.6,1.6-4,1.6s-2.9-0.6-4-1.6c-1.1-1.1-1.6-2.6-1.6-4c0-1.5,0.5-2.9,1.6-4l9.4-9.5l-9.4-9.4
		c-1.1-1.1-1.6-2.6-1.6-4s0.5-2.9,1.6-4s2.6-1.6,4-1.6s2.9,0.5,4,1.6l13.4,13.4c1.1,1.1,1.6,2.6,1.6,4S45.4,33.8,44.3,34.9z"/>
</g>
</svg>
