<?xml version="1.0" encoding="utf-8"?>
<!-- Generator: Adobe Illustrator 18.0.0, SVG Export Plug-In . SVG Version: 6.00 Build 0)  -->
<!DOCTYPE svg PUBLIC "-//W3C//DTD SVG 1.1//EN" "http://www.w3.org/Graphics/SVG/1.1/DTD/svg11.dtd">
<svg version="1.1" id="Layer_1" xmlns="http://www.w3.org/2000/svg" xmlns:xlink="http://www.w3.org/1999/xlink" x="0px" y="0px"
	 viewBox="0 0 17 17" enable-background="new 0 0 17 17" xml:space="preserve">
<g id="Layer_x0020_1">
	<path fill="#FFFFFF" d="M8.5,0C13.1,0,17,3.8,17,8.5S13.1,17,8.5,17S0,13.1,0,8.5S3.8,0,8.5,0z M9,6.3V5.7c0-0.5,0.3-0.5,0.3-0.5
		c0.3,0,1.4,0,1.4,0V3.6L9,3.3c-1.6,0-2.2,1.4-2.2,2.2v0.8H6v2.2h0.8c0,2.2,0,4.9,0,4.9H9c0,0,0-2.7,0-4.9h1.4V7.7l0.3-1.4H9z"/>
</g>
</svg>
