<?xml version="1.0" encoding="utf-8"?>
<!-- Generator: Adobe Illustrator 18.0.0, SVG Export Plug-In . SVG Version: 6.00 Build 0)  -->
<!DOCTYPE svg PUBLIC "-//W3C//DTD SVG 1.1//EN" "http://www.w3.org/Graphics/SVG/1.1/DTD/svg11.dtd">
<svg version="1.1" id="Layer_1" xmlns="http://www.w3.org/2000/svg" xmlns:xlink="http://www.w3.org/1999/xlink" x="0px" y="0px"
	 viewBox="0 0 17 15.3" enable-background="new 0 0 17 15.3" xml:space="preserve">
<g id="Layer_x0020_1">
	<path fill="#FFFFFF" d="M15.5,0.1H7.6C6.6,0.1,6,0.7,6,1.7v6.9h6l2.5,2.5V8.6h0.9C16.4,8.6,17,8,17,7V1.7C17,0.7,16.4,0.1,15.5,0.1
		z M5,9.5V4.2H1.6C0.6,4.2,0,5.1,0,6.1v5c0,0.9,0.6,1.6,1.6,1.6h0.9v2.5L5,12.7h4.4c0.9,0,1.6-0.6,1.6-1.6V9.5l0,0H5z"/>
</g>
</svg>
