<?xml version="1.0" encoding="utf-8"?>
<!-- Generator: Adobe Illustrator 18.0.0, SVG Export Plug-In . SVG Version: 6.00 Build 0)  -->
<!DOCTYPE svg PUBLIC "-//W3C//DTD SVG 1.1//EN" "http://www.w3.org/Graphics/SVG/1.1/DTD/svg11.dtd">
<svg version="1.1" id="Layer_1" xmlns="http://www.w3.org/2000/svg" xmlns:xlink="http://www.w3.org/1999/xlink" x="0px" y="0px"
	 viewBox="0 0 17.1 16.6" enable-background="new 0 0 17.1 16.6" xml:space="preserve">
<g id="Layer_x0020_1">
	<path fill="#FFFFFF" d="M17.1,11.7v0.2c0,0.2-0.1,0.3-0.3,0.3H9.2V13h1.5c0.2,0,0.4,0.1,0.4,0.3c0,0.1,0,0.2-0.1,0.3
		c0,0.1-0.2,0.2-0.2,0.2H9.2v1c1.4,0,1.1-0.1,1.8,0.5c0.1,0.1,0.1,0.1,0.2,0.2c0.2,0.2,0.8,0.6,0.8,0.8c0,0.3-0.3,0.5-0.6,0.3
		l-1.1-0.9c-0.1-0.1-0.1-0.1-0.2-0.1H9.2v0.7c0,0.2-0.3,0.3-0.4,0.3c-0.5,0-0.4-0.7-0.4-1.1H7.6c-0.2,0-1.2,1-1.6,1
		c-0.2,0-0.3-0.1-0.3-0.4c0-0.3,0.2-0.3,0.4-0.5c0.2-0.1,0.3-0.2,0.5-0.4c1-0.7,0.5-0.6,1.9-0.6v-1H6.8C6.5,13.8,6.4,13,7,13h1.5
		v-0.9h-8c-0.4,0-0.4-0.5-0.2-0.6c0.2-0.1,1-0.1,1.3-0.1v-9H0.5C0.3,2.4,0,2.3,0,2V0.3C0,0.1,0.2,0,0.4,0h16.3
		c0.2,0,0.4,0.1,0.4,0.3V2c0,0.3-0.3,0.3-0.5,0.3h-1.1v9h1.3C17,11.4,17.1,11.6,17.1,11.7z M10.9,4.2l0.9,0c-0.1,0.1-1,1-1.3,1.3
		C10.4,5.6,10,6.1,9.8,6.2C9.7,6.2,9.5,5.8,9.4,5.7C9,5.2,9.1,5.1,8.7,5.1c-0.1,0-0.2,0.1-0.3,0.2L7.2,6.7C7.1,6.8,7.1,6.8,7,6.9
		C6.8,7.1,5.8,8.2,5.7,8.3c-0.1,0.2,0,0.5,0.4,0.5c0.2,0,0.6-0.4,0.7-0.6l2-2.1C9,6.3,9.3,7.3,9.7,7.3c0.3,0,0.4-0.3,0.7-0.6
		c0.4-0.4,1.7-1.8,1.9-1.9c0,0.3-0.2,0.9,0.2,1.1c0.1,0.1,0.2,0.1,0.4,0C13,5.7,13,5.5,13,5.2l0.1-1.3c0-0.4-0.2-0.4-0.5-0.4l-1.3,0
		c-0.3,0-0.6,0-0.7,0.2C10.5,3.9,10.6,4.2,10.9,4.2z M3.9,4.2v5.9c0,0.3,0.2,0.4,0.4,0.4h9.1c0.1,0,0.3,0,0.3-0.1
		c0.3-0.2,0.1-0.6-0.1-0.6h-9V4C4.6,3.7,3.9,3.5,3.9,4.2z M0.7,0.7h15.6v0.9H0.7V0.7z"/>
</g>
</svg>
