<?xml version="1.0" encoding="utf-8"?>
<!-- Generator: Adobe Illustrator 18.0.0, SVG Export Plug-In . SVG Version: 6.00 Build 0)  -->
<!DOCTYPE svg PUBLIC "-//W3C//DTD SVG 1.1//EN" "http://www.w3.org/Graphics/SVG/1.1/DTD/svg11.dtd">
<svg version="1.1" id="Layer_1" xmlns="http://www.w3.org/2000/svg" xmlns:xlink="http://www.w3.org/1999/xlink" x="0px" y="0px"
	 viewBox="0 0 17 17" enable-background="new 0 0 17 17" xml:space="preserve">
<g id="Layer_x0020_1">
	<path fill="#FFFFFF" d="M8.5,0C13.3,0,17,3.7,17,8.5S13.3,17,8.5,17S0,13.3,0,8.5S3.7,0,8.5,0z M13.8,5.8c-0.5,0-0.5,0.5-1.1,0.5
		c0.5-0.5,0.5-0.5,0.5-1.1c0,0-0.5,0-1.1,0.5c-0.5-0.5-1.1-1.1-1.6-1.1c-1.1,0-2.1,1.1-2.1,2.1c0,0.5,0,0.5,0,0.5
		c-1.6,0-3.2-1.1-4.2-2.1c0,0.5,0,0.5,0,1.1S4.2,8,5.3,8C4.8,8,4.2,8,4.2,8l0,0v0.5C4.8,9,5.3,9.5,5.8,10.1H5.3H4.8
		c0.5,0.5,1.1,1.1,2.1,1.1c-1.1,0.5-1.6,1.1-2.7,1.1H3.7c1.1,0.5,2.1,1.1,3.2,1.1c3.2,0,5.3-2.7,5.8-4.8c0-0.5,0-1.1,0-1.1V6.9
		C13.3,6.9,13.3,6.4,13.8,5.8z"/>
</g>
</svg>
